<svg width="40" height="40" viewBox="0 0 40 40" fill="none" xmlns="http://www.w3.org/2000/svg">
<circle cx="20" cy="20" r="20" fill="#F4F5FA"/>
<mask id="mask0_1107_2164" style="mask-type:alpha" maskUnits="userSpaceOnUse" x="8" y="8" width="24" height="24">
<rect x="8" y="8" width="24" height="24" fill="#D9D9D9"/>
</mask>
<g mask="url(#mask0_1107_2164)">
<path d="M20.5013 29.499C19.3209 29.499 18.2151 29.2787 17.1839 28.838C16.1526 28.3973 15.2512 27.7914 14.4798 27.0203C13.7083 26.2491 13.1021 25.3481 12.6613 24.3172C12.2204 23.2864 12 22.1807 12 21.0004C12 19.82 12.2204 18.7142 12.6611 17.6829C13.1019 16.6517 13.7079 15.7503 14.4792 14.9788C15.2505 14.2074 16.1516 13.6012 17.1826 13.1604C18.2136 12.7195 19.3194 12.4991 20.5 12.4991C20.85 12.4991 21.1875 12.5199 21.5125 12.5616C21.8375 12.6032 22.1666 12.6657 22.5 12.7491V14.2991C22.1666 14.1991 21.8375 14.1241 21.5125 14.0741C21.1875 14.0241 20.85 13.9991 20.5 13.9991C18.5461 13.9991 16.891 14.6773 15.5346 16.0337C14.1782 17.3901 13.5 19.0452 13.5 20.9991C13.5 22.9529 14.1782 24.608 15.5346 25.9644C16.891 27.3208 18.5461 27.9991 20.5 27.9991C22.4538 27.9991 24.109 27.3208 25.4654 25.9644C26.8218 24.608 27.5 22.9524 27.5 20.9974C27.5 20.8152 27.4916 20.6394 27.475 20.4702C27.4583 20.301 27.4301 20.1247 27.3904 19.9414H28.9211C28.9544 20.1119 28.9759 20.2849 28.9855 20.4606C28.9951 20.6362 29 20.8157 29 20.9991C29 22.1796 28.7796 23.2854 28.3389 24.3164C27.8983 25.3474 27.2923 26.2486 26.5212 27.0199C25.75 27.7912 24.849 28.3972 23.8181 28.8379C22.7873 29.2787 21.6817 29.499 20.5013 29.499ZM23.4731 25.026L19.75 21.3029V15.9991H21.25V20.6952L24.5269 23.9722L23.4731 25.026ZM27.5 17.9414V14.9414H24.5V13.4414H27.5V10.4414H29V13.4414H32V14.9414H29V17.9414H27.5Z" fill="#4048A3"/>
</g>
</svg>
