<svg width="20" height="20" viewBox="0 0 20 20" fill="none" xmlns="http://www.w3.org/2000/svg">
<path d="M17.4983 5.20833C17.4983 4.49004 17.213 3.80116 16.7051 3.29325C16.1972 2.78534 15.5083 2.5 14.79 2.5H5.20833C4.49004 2.5 3.80116 2.78534 3.29325 3.29325C2.78534 3.80116 2.5 4.49004 2.5 5.20833V14.7908C2.5 15.5091 2.78534 16.198 3.29325 16.7059C3.80116 17.2138 4.49004 17.4992 5.20833 17.4992H9.30333L9.6 16.3125L9.61667 16.2492H5.20833C4.82156 16.2492 4.45063 16.0955 4.17714 15.822C3.90365 15.5485 3.75 15.1776 3.75 14.7908V7.0825H16.2483V9.36C16.6451 9.20271 17.0731 9.13994 17.4983 9.17667V5.20833ZM5.20833 3.75H14.7908C15.5958 3.75 16.2492 4.4025 16.2492 5.20833V5.83333H3.74917V5.20833C3.74917 4.4025 4.40333 3.75 5.20833 3.75ZM15.915 10.5575L10.9975 15.475C10.7104 15.7618 10.5068 16.1213 10.4083 16.515L10.0275 18.04C9.86083 18.7042 10.4625 19.305 11.1258 19.1392L12.6508 18.7575C13.0444 18.6593 13.4039 18.4559 13.6908 18.1692L18.6083 13.25C18.9564 12.8909 19.1492 12.4093 19.1452 11.9092C19.1412 11.4091 18.9408 10.9306 18.5871 10.5771C18.2334 10.2235 17.7549 10.0232 17.2548 10.0194C16.7547 10.0156 16.2732 10.2085 15.9142 10.5567L15.915 10.5575Z" fill="#AAAAAA"/>
</svg>
