<svg width="40" height="40" viewBox="0 0 40 40" fill="none" xmlns="http://www.w3.org/2000/svg">
<circle cx="20" cy="20" r="19" fill="#F0F1F8" stroke="white" stroke-width="2"/>
<mask id="mask0_933_15853" style="mask-type:alpha" maskUnits="userSpaceOnUse" x="8" y="8" width="24" height="24">
<rect x="8" y="8" width="24" height="24" fill="#D9D9D9"/>
</mask>
<g mask="url(#mask0_933_15853)">
<path d="M13 27H14.2615L24.4981 16.7634L23.2366 15.5019L13 25.7385V27ZM11.5 28.5V25.1154L24.6904 11.9308C24.8416 11.7934 25.0086 11.6873 25.1913 11.6124C25.374 11.5375 25.5656 11.5 25.7661 11.5C25.9666 11.5 26.1608 11.5356 26.3488 11.6068C26.5368 11.6779 26.7032 11.791 26.848 11.9462L28.0692 13.1827C28.2243 13.3275 28.3349 13.4942 28.4009 13.6828C28.4669 13.8713 28.5 14.0598 28.5 14.2483C28.5 14.4494 28.4656 14.6413 28.3969 14.824C28.3283 15.0068 28.219 15.1737 28.0692 15.325L14.8846 28.5H11.5ZM23.8563 16.1437L23.2366 15.5019L24.4981 16.7634L23.8563 16.1437Z" fill="#2B3499"/>
</g>
</svg>
