<svg width="24" height="24" viewBox="0 0 24 24" fill="none" xmlns="http://www.w3.org/2000/svg">
<path d="M2.66667 21.3333H4.56667L17.6 8.3L15.7 6.4L2.66667 19.4333V21.3333ZM1.33333 24C0.955556 24 0.638889 23.8722 0.383333 23.6167C0.127778 23.3611 0 23.0444 0 22.6667V19.4333C0 19.0778 0.0666667 18.7389 0.2 18.4167C0.333333 18.0944 0.522222 17.8111 0.766667 17.5667L17.6 0.766667C17.8667 0.522222 18.1611 0.333333 18.4833 0.2C18.8056 0.0666667 19.1444 0 19.5 0C19.8556 0 20.2 0.0666667 20.5333 0.2C20.8667 0.333333 21.1556 0.533333 21.4 0.8L23.2333 2.66667C23.5 2.91111 23.6944 3.2 23.8167 3.53333C23.9389 3.86667 24 4.2 24 4.53333C24 4.88889 23.9389 5.22778 23.8167 5.55C23.6944 5.87222 23.5 6.16667 23.2333 6.43333L6.43333 23.2333C6.18889 23.4778 5.90556 23.6667 5.58333 23.8C5.26111 23.9333 4.92222 24 4.56667 24H1.33333ZM16.6333 7.36667L15.7 6.4L17.6 8.3L16.6333 7.36667Z" fill="#FF6C22"/>
</svg>
