<svg width="121" height="120" viewBox="0 0 121 120" fill="none" xmlns="http://www.w3.org/2000/svg">
<path d="M60.579 8.25L13.929 54.7537C12.5426 56.1508 11.7646 58.0393 11.7646 60.0075C11.7646 61.9757 12.5426 63.8642 13.929 65.2612L60.579 111.75L63.234 109.114C76.8802 95.52 85.2277 87.195 90.1627 82.2637L95.2477 77.1712C95.5686 76.8568 95.8787 76.5316 96.1777 76.1963L96.4702 75.9187L96.4477 75.8887L96.6802 75.5963L107.045 65.2537C108.47 63.8512 109.25 61.9875 109.25 59.9963C109.25 58.0088 108.47 56.1488 107.053 54.7463C100.816 48.5213 93.6277 41.31 86.3977 34.0613C78.2977 25.9388 70.149 17.7638 63.234 10.8787L60.579 8.25ZM60.579 18.8362C66.879 25.1212 74.004 32.2613 81.0915 39.36C88.299 46.59 95.469 53.7788 101.698 59.9925C96.6202 65.055 93.0427 68.625 90.5977 71.205C90.129 71.6287 89.6565 72.0975 89.169 72.5775C88.329 73.4025 87.504 74.1975 87.3202 74.37L87.3877 74.445C78.459 83.3563 69.5253 92.2626 60.5865 101.164L19.224 60.06L60.579 18.8362ZM60.579 40.9725L41.4802 60L60.579 79.0275L79.689 60L60.579 40.9725ZM60.579 51.555L69.0615 60L60.579 68.445L52.104 60L60.579 51.555Z" fill="#EAEBF5"/>
</svg>
