<svg width="20" height="20" viewBox="0 0 20 20" fill="none" xmlns="http://www.w3.org/2000/svg">
<g clip-path="url(#clip0_993_8141)">
<mask id="mask0_993_8141" style="mask-type:alpha" maskUnits="userSpaceOnUse" x="0" y="0" width="20" height="20">
<rect width="20" height="20" fill="#D9D9D9"/>
</mask>
<g mask="url(#mask0_993_8141)">
<path d="M10.1133 19C8.84817 19 7.66317 18.7638 6.55829 18.2914C5.45342 17.819 4.48999 17.1769 3.668 16.3652C2.84602 15.5534 2.19586 14.602 1.71751 13.511C1.23917 12.42 1 11.2498 1 10.0006C1 8.75133 1.23917 7.581 1.71751 6.48959C2.19586 5.39819 2.84602 4.4466 3.668 3.63484C4.48999 2.82309 5.45342 2.18102 6.55829 1.70862C7.66317 1.23621 8.84817 1 10.1133 1C11.4617 1 12.7428 1.27998 13.9565 1.83994C15.1702 2.3999 16.2122 3.18689 17.0823 4.20091V2.48641C17.0823 2.26141 17.1593 2.0728 17.3135 1.9206C17.4677 1.76839 17.6588 1.69229 17.8867 1.69229C18.1146 1.69229 18.3056 1.76839 18.4595 1.9206C18.6135 2.0728 18.6905 2.26141 18.6905 2.48641V6.1108C18.6905 6.38195 18.5976 6.60923 18.4119 6.79265C18.2261 6.9761 17.996 7.06782 17.7214 7.06782H14.0514C13.8235 7.06782 13.6326 6.99168 13.4784 6.8394C13.3243 6.68713 13.2473 6.49844 13.2473 6.27335C13.2473 6.04825 13.3243 5.85968 13.4784 5.70765C13.6326 5.55562 13.8235 5.4796 14.0514 5.4796H16.0513C15.3118 4.5796 14.4301 3.8727 13.406 3.35891C12.382 2.84511 11.2844 2.58821 10.1133 2.58821C8.02259 2.58821 6.24907 3.30733 4.79272 4.74557C3.33638 6.18381 2.60821 7.93529 2.60821 10C2.60821 12.0647 3.33638 13.8162 4.79272 15.2544C6.24907 16.6927 8.02259 17.4118 10.1133 17.4118C11.8452 17.4118 13.3865 16.8868 14.737 15.8368C16.0875 14.7868 16.9668 13.4439 17.3751 11.8081C17.4438 11.5869 17.5651 11.4192 17.739 11.3052C17.9129 11.1912 18.1094 11.1484 18.3287 11.1769C18.5616 11.2054 18.7417 11.3079 18.8688 11.4844C18.996 11.6608 19.0307 11.8543 18.973 12.0647C18.5097 14.09 17.4561 15.7522 15.8122 17.0513C14.1682 18.3504 12.2686 19 10.1133 19ZM10.9174 9.67828L13.8658 12.5901C14.0143 12.7367 14.0902 12.921 14.0936 13.1429C14.0971 13.3648 14.0212 13.5525 13.8658 13.7059C13.7105 13.8593 13.5222 13.936 13.3009 13.936C13.0796 13.936 12.8913 13.8593 12.736 13.7059L9.59989 10.6088C9.49956 10.5097 9.42602 10.4017 9.3793 10.2849C9.33255 10.168 9.30918 10.0473 9.30918 9.92263V5.49996C9.30918 5.27498 9.38627 5.08638 9.54047 4.93418C9.69466 4.78197 9.88572 4.70587 10.1136 4.70587C10.3416 4.70587 10.5325 4.78197 10.6865 4.93418C10.8404 5.08638 10.9174 5.27498 10.9174 5.49996V9.67828Z" fill="#FF6C22"/>
</g>
</g>
<defs>
<clipPath id="clip0_993_8141">
<rect width="20" height="20" fill="white"/>
</clipPath>
</defs>
</svg>
