<svg width="20" height="20" viewBox="0 0 20 20" fill="none" xmlns="http://www.w3.org/2000/svg">
<path d="M16.81 5.62442H15.2591L11.4541 9.42775C11.5852 9.76174 11.5973 10.1307 11.4883 10.4725C11.3793 10.8143 11.156 11.1082 10.8558 11.3047C10.5556 11.5013 10.1969 11.5884 9.84003 11.5516C9.48314 11.5147 9.14982 11.3561 8.89612 11.1024C8.64243 10.8487 8.48382 10.5154 8.44698 10.1585C8.41014 9.80165 8.4973 9.44297 8.69382 9.14279C8.89034 8.84261 9.18423 8.61926 9.52606 8.51029C9.86789 8.40131 10.2368 8.41336 10.5708 8.54442L14.375 4.74025V3.18942C14.3751 2.9819 14.4575 2.78289 14.6041 2.63608L16.0458 1.19442C16.0724 1.16749 16.1059 1.14836 16.1427 1.1391C16.1794 1.12985 16.2179 1.13082 16.2541 1.14192C16.3283 1.16358 16.3833 1.22525 16.3983 1.30108L16.7816 3.21858L18.6983 3.60192C18.7733 3.61692 18.835 3.67192 18.8566 3.74608C18.8676 3.78211 18.8686 3.82043 18.8595 3.85697C18.8504 3.8935 18.8315 3.92689 18.805 3.95358L17.3625 5.39525C17.29 5.46788 17.2038 5.52551 17.109 5.56483C17.0142 5.60416 16.9126 5.6244 16.81 5.62442Z" fill="#FF6C22"/>
<path d="M2.1875 10C2.1875 12.072 3.0106 14.0591 4.47573 15.5243C5.94086 16.9894 7.928 17.8125 10 17.8125C11.026 17.8125 12.0419 17.6104 12.9897 17.2178C13.9376 16.8252 14.7988 16.2497 15.5243 15.5243C16.2497 14.7988 16.8252 13.9376 17.2178 12.9897C17.6104 12.0419 17.8125 11.026 17.8125 10C17.8125 9.25167 17.7075 8.52834 17.5117 7.84417C17.4727 7.68708 17.4963 7.52101 17.5773 7.38092C17.6583 7.24082 17.7905 7.13762 17.9461 7.09303C18.1017 7.04844 18.2685 7.06594 18.4114 7.14185C18.5544 7.21775 18.6623 7.34614 18.7125 7.5C18.9408 8.295 19.0625 9.13334 19.0625 10C19.0625 15.005 15.005 19.0625 10 19.0625C4.995 19.0625 0.9375 15.005 0.9375 10C0.9375 4.99501 4.995 0.937504 10 0.937504C10.8458 0.936671 11.6867 1.05417 12.5 1.28667C12.5793 1.30892 12.6534 1.34662 12.7181 1.3976C12.7828 1.44859 12.8368 1.51186 12.8769 1.58378C12.9171 1.65569 12.9426 1.73483 12.9521 1.81665C12.9615 1.89847 12.9547 1.98135 12.932 2.06053C12.9094 2.13971 12.8713 2.21363 12.8199 2.27803C12.7686 2.34243 12.705 2.39606 12.6329 2.43581C12.5607 2.47557 12.4815 2.50067 12.3996 2.50969C12.3177 2.5187 12.2349 2.51145 12.1558 2.48834C11.4547 2.28811 10.7291 2.18685 10 2.1875C7.928 2.1875 5.94086 3.0106 4.47573 4.47573C3.0106 5.94086 2.1875 7.928 2.1875 10Z" fill="#FF6C22"/>
<path d="M5.93745 9.99983C5.93977 10.5518 6.05457 11.0974 6.27482 11.6035C6.49507 12.1096 6.81616 12.5655 7.21849 12.9434C7.62081 13.3212 8.09593 13.6131 8.61482 13.8012C9.13372 13.9893 9.68551 14.0697 10.2365 14.0374C10.7875 14.0052 11.3261 13.8609 11.8195 13.6136C12.3129 13.3662 12.7507 13.0208 13.1062 12.5986C13.4617 12.1764 13.7274 11.6861 13.8871 11.1578C14.0467 10.6294 14.0971 10.0741 14.0349 9.52566C14.0174 9.41459 14.0303 9.30085 14.0722 9.1965C14.1141 9.09214 14.1834 9.00106 14.2728 8.9329C14.3623 8.86474 14.4685 8.82204 14.5802 8.80932C14.6919 8.7966 14.805 8.81434 14.9074 8.86066C15.1166 8.95399 15.2574 9.15316 15.2758 9.38149C15.4052 10.4775 15.1899 11.5867 14.6599 12.5547C14.1298 13.5227 13.3114 14.3016 12.3183 14.783C11.3251 15.2645 10.2067 15.4245 9.11844 15.241C8.03016 15.0575 7.02608 14.5395 6.24578 13.759C5.46569 12.9793 4.94755 11.9763 4.76322 10.8889C4.57889 9.80151 4.7375 8.68371 5.21705 7.69053C5.69661 6.69735 6.47334 5.87801 7.43952 5.34615C8.4057 4.81429 9.51344 4.59627 10.6091 4.72233C10.6919 4.73001 10.7724 4.75415 10.8458 4.79334C10.9192 4.83252 10.984 4.88596 11.0364 4.95052C11.0889 5.01508 11.1279 5.08946 11.1513 5.16931C11.1746 5.24915 11.1818 5.33285 11.1723 5.4155C11.1629 5.49815 11.1371 5.57809 11.0964 5.65062C11.0556 5.72316 11.0008 5.78683 10.9352 5.83792C10.8695 5.889 10.7943 5.92647 10.714 5.94812C10.6337 5.96976 10.5499 5.97516 10.4674 5.96399C9.8983 5.89819 9.32168 5.9535 8.77542 6.12627C8.22916 6.29905 7.72561 6.5854 7.29782 6.96652C6.87003 7.34764 6.52768 7.81492 6.29323 8.33768C6.05878 8.86045 5.93753 9.42689 5.93745 9.99983Z" fill="#FF6C22"/>
</svg>
