<svg width="49" height="48" viewBox="0 0 49 48" fill="none" xmlns="http://www.w3.org/2000/svg">
<circle cx="24.5" cy="24" r="23.5" fill="white" stroke="#E9E9E9"/>
<mask id="mask0_1175_10078" style="mask-type:alpha" maskUnits="userSpaceOnUse" x="12" y="12" width="25" height="25">
<rect x="12.3125" y="12.2812" width="24" height="24" fill="#D9D9D9"/>
</mask>
<g mask="url(#mask0_1175_10078)">
<path d="M19.6202 32.783C19.1215 32.783 18.6955 32.6064 18.3423 32.2532C17.9891 31.9 17.8125 31.474 17.8125 30.9753V18.283H16.8125V16.783H21.3125V15.8984H27.3125V16.783H31.8125V18.283H30.8125V30.9753C30.8125 31.4804 30.6375 31.908 30.2875 32.258C29.9375 32.608 29.5099 32.783 29.0047 32.783H19.6202ZM29.3125 18.283H19.3125V30.9753C19.3125 31.065 19.3413 31.1388 19.399 31.1965C19.4567 31.2542 19.5304 31.283 19.6202 31.283H29.0047C29.0817 31.283 29.1522 31.251 29.2163 31.1869C29.2804 31.1227 29.3125 31.0522 29.3125 30.9753V18.283ZM21.7164 29.283H23.2163V20.283H21.7164V29.283ZM25.4086 29.283H26.9086V20.283H25.4086V29.283Z" fill="#2A2A2A"/>
</g>
</svg>
