<svg width="48" height="48" viewBox="0 0 48 48" fill="none" xmlns="http://www.w3.org/2000/svg">
<circle cx="24" cy="24" r="24" fill="#F0F1F8"/>
<mask id="mask0_1175_6364" style="mask-type:alpha" maskUnits="userSpaceOnUse" x="12" y="12" width="24" height="24">
<rect x="12" y="12" width="24" height="24" fill="#D9D9D9"/>
</mask>
<g mask="url(#mask0_1175_6364)">
<path d="M17 31H18.2615L28.4981 20.7634L27.2366 19.5019L17 29.7385V31ZM15.5 32.5V29.1154L28.6904 15.9308C28.8416 15.7934 29.0086 15.6873 29.1913 15.6124C29.374 15.5375 29.5656 15.5 29.7661 15.5C29.9666 15.5 30.1608 15.5356 30.3488 15.6068C30.5368 15.6779 30.7032 15.791 30.848 15.9462L32.0692 17.1827C32.2243 17.3275 32.3349 17.4942 32.4009 17.6828C32.4669 17.8713 32.5 18.0598 32.5 18.2483C32.5 18.4494 32.4656 18.6413 32.3969 18.824C32.3283 19.0068 32.219 19.1737 32.0692 19.325L18.8846 32.5H15.5ZM27.8563 20.1437L27.2366 19.5019L28.4981 20.7634L27.8563 20.1437Z" fill="#4048A3"/>
</g>
</svg>
