<svg width="40" height="40" viewBox="0 0 40 40" fill="none" xmlns="http://www.w3.org/2000/svg">
<circle cx="20" cy="20" r="19.5" stroke="#DFE1F0"/>
<mask id="mask0_1188_8783" style="mask-type:alpha" maskUnits="userSpaceOnUse" x="8" y="8" width="24" height="24">
<rect x="8" y="8" width="24" height="24" fill="#D9D9D9"/>
</mask>
<g mask="url(#mask0_1188_8783)">
<path d="M15.3077 28.5017C14.809 28.5017 14.383 28.3251 14.0298 27.9719C13.6766 27.6187 13.5 27.1928 13.5 26.694V14.0018H12.5V12.5018H17V11.6172H23V12.5018H27.5V14.0018H26.5V26.694C26.5 27.1992 26.325 27.6267 25.975 27.9767C25.625 28.3267 25.1974 28.5017 24.6922 28.5017H15.3077ZM25 14.0018H15V26.694C15 26.7838 15.0288 26.8575 15.0865 26.9152C15.1442 26.9729 15.2179 27.0018 15.3077 27.0018H24.6922C24.7692 27.0018 24.8397 26.9697 24.9038 26.9056C24.9679 26.8415 25 26.771 25 26.694V14.0018ZM17.4039 25.0018H18.9038V16.0018H17.4039V25.0018ZM21.0961 25.0018H22.5961V16.0018H21.0961V25.0018Z" fill="#555555"/>
</g>
</svg>
