<svg width="20" height="20" viewBox="0 0 20 20" fill="none" xmlns="http://www.w3.org/2000/svg">
<path fill-rule="evenodd" clip-rule="evenodd" d="M7.82471 2.13672H14.6494V10.0989C14.6494 10.1995 14.6228 10.2983 14.5721 10.3853C14.5215 10.4722 14.4486 10.5442 14.3611 10.5938C14.2736 10.6434 14.1744 10.6689 14.0738 10.6677C13.9732 10.6665 13.8747 10.6386 13.7884 10.5868L11.2371 9.05583L8.68576 10.588C8.59936 10.6398 8.50076 10.6676 8.40005 10.6688C8.29933 10.67 8.20011 10.6444 8.11253 10.5946C8.02495 10.5449 7.95216 10.4728 7.90159 10.3857C7.85102 10.2986 7.82449 10.1996 7.82471 10.0989V2.13672Z" fill="#FF6C22"/>
<path d="M2.13745 15.7369H2.08745V15.7869V16.9243C2.08745 17.5409 2.3324 18.1323 2.7684 18.5683C3.2044 19.0043 3.79575 19.2492 4.41235 19.2492H15.7869C16.4035 19.2492 16.9948 19.0043 17.4308 18.5683C17.8668 18.1323 18.1118 17.5409 18.1118 16.9243V3.2749C18.1118 2.6583 17.8668 2.06695 17.4308 1.63095C16.9948 1.19494 16.4035 0.95 15.7869 0.95H4.41235C3.79575 0.95 3.2044 1.19494 2.7684 1.63095C2.3324 2.06695 2.08745 2.6583 2.08745 3.2749V4.41235V4.46235H2.13745H3.2749H3.3249V4.41235V3.2749C3.3249 2.98649 3.43947 2.70989 3.64341 2.50596C3.84735 2.30202 4.12394 2.18745 4.41235 2.18745H15.7869C16.0753 2.18745 16.3519 2.30202 16.5558 2.50596C16.7597 2.70989 16.8743 2.98649 16.8743 3.2749V16.9243C16.8743 17.2127 16.7597 17.4893 16.5558 17.6933C16.3519 17.8972 16.0753 18.0118 15.7869 18.0118H4.41235C4.12394 18.0118 3.84735 17.8972 3.64341 17.6933C3.43947 17.4893 3.3249 17.2127 3.3249 16.9243V15.7869V15.7369H3.2749H2.13745Z" fill="#FF6C22" stroke="#FF6C22" stroke-width="0.1"/>
<path d="M2.08745 6.11951V6.63823H1.56873C1.40463 6.63823 1.24725 6.70342 1.13122 6.81945C1.01519 6.93549 0.95 7.09286 0.95 7.25696C0.95 7.42105 1.01519 7.57843 1.13122 7.69446C1.24725 7.8105 1.40463 7.87568 1.56873 7.87568H3.84363C4.00772 7.87568 4.1651 7.8105 4.28113 7.69446C4.39717 7.57843 4.46235 7.42105 4.46235 7.25696C4.46235 7.09286 4.39717 6.93549 4.28113 6.81945C4.1651 6.70342 4.00772 6.63823 3.84363 6.63823H3.3249V6.11951C3.3249 5.95541 3.25972 5.79804 3.14368 5.682C3.02765 5.56597 2.87027 5.50078 2.70618 5.50078C2.54208 5.50078 2.38471 5.56597 2.26867 5.682C2.15264 5.79804 2.08745 5.95541 2.08745 6.11951ZM2.08745 9.53186V10.0506H1.56873C1.40463 10.0506 1.24725 10.1158 1.13122 10.2318C1.01519 10.3478 0.95 10.5052 0.95 10.6693C0.95 10.8334 1.01519 10.9908 1.13122 11.1068C1.24725 11.2229 1.40463 11.288 1.56873 11.288H3.84363C4.00772 11.288 4.1651 11.2229 4.28113 11.1068C4.39717 10.9908 4.46235 10.8334 4.46235 10.6693C4.46235 10.5052 4.39717 10.3478 4.28113 10.2318C4.1651 10.1158 4.00772 10.0506 3.84363 10.0506H3.3249V9.53186C3.3249 9.36776 3.25972 9.21039 3.14368 9.09436C3.02765 8.97832 2.87027 8.91313 2.70618 8.91313C2.54208 8.91313 2.38471 8.97832 2.26867 9.09436C2.15264 9.21039 2.08745 9.36776 2.08745 9.53186ZM2.08745 12.9442V13.4629H1.56873C1.40463 13.4629 1.24725 13.5281 1.13122 13.6442C1.01519 13.7602 0.95 13.9176 0.95 14.0817C0.95 14.2458 1.01519 14.4031 1.13122 14.5192C1.24725 14.6352 1.40463 14.7004 1.56873 14.7004H3.84363C4.00772 14.7004 4.1651 14.6352 4.28113 14.5192C4.39717 14.4031 4.46235 14.2458 4.46235 14.0817C4.46235 13.9176 4.39717 13.7602 4.28113 13.6442C4.1651 13.5281 4.00772 13.4629 3.84363 13.4629H3.3249V12.9442C3.3249 12.7801 3.25972 12.6227 3.14368 12.5067C3.02765 12.3907 2.87027 12.3255 2.70618 12.3255C2.54208 12.3255 2.38471 12.3907 2.26867 12.5067C2.15264 12.6227 2.08745 12.7801 2.08745 12.9442Z" fill="#FF6C22" stroke="#FF6C22" stroke-width="0.1"/>
</svg>
