<svg width="40" height="40" viewBox="0 0 40 40" fill="none" xmlns="http://www.w3.org/2000/svg">
<circle cx="20" cy="20" r="19.5" fill="white" stroke="#E9E9E9"/>
<mask id="mask0_1098_2564" style="mask-type:alpha" maskUnits="userSpaceOnUse" x="8" y="8" width="24" height="24">
<rect x="8" y="8" width="24" height="24" fill="#D9D9D9"/>
</mask>
<g mask="url(#mask0_1098_2564)">
<path d="M20 27.2688C19.5875 27.2688 19.2344 27.122 18.9406 26.8282C18.6469 26.5345 18.5 26.1814 18.5 25.7689C18.5 25.3564 18.6469 25.0033 18.9406 24.7095C19.2344 24.4158 19.5875 24.2689 20 24.2689C20.4125 24.2689 20.7656 24.4158 21.0593 24.7095C21.3531 25.0033 21.5 25.3564 21.5 25.7689C21.5 26.1814 21.3531 26.5345 21.0593 26.8282C20.7656 27.122 20.4125 27.2688 20 27.2688ZM20 21.4996C19.5875 21.4996 19.2344 21.3527 18.9406 21.059C18.6469 20.7652 18.5 20.4121 18.5 19.9996C18.5 19.5872 18.6469 19.234 18.9406 18.9403C19.2344 18.6465 19.5875 18.4997 20 18.4997C20.4125 18.4997 20.7656 18.6465 21.0593 18.9403C21.3531 19.234 21.5 19.5872 21.5 19.9996C21.5 20.4121 21.3531 20.7652 21.0593 21.059C20.7656 21.3527 20.4125 21.4996 20 21.4996ZM20 15.7304C19.5875 15.7304 19.2344 15.5835 18.9406 15.2898C18.6469 14.996 18.5 14.6429 18.5 14.2304C18.5 13.8179 18.6469 13.4648 18.9406 13.1711C19.2344 12.8773 19.5875 12.7305 20 12.7305C20.4125 12.7305 20.7656 12.8773 21.0593 13.1711C21.3531 13.4648 21.5 13.8179 21.5 14.2304C21.5 14.6429 21.3531 14.996 21.0593 15.2898C20.7656 15.5835 20.4125 15.7304 20 15.7304Z" fill="#2A2A2A"/>
</g>
</svg>
