<svg width="19" height="19" viewBox="0 0 19 19" fill="none" xmlns="http://www.w3.org/2000/svg">
<path d="M4.64617 5.66532L7.84227 0.426926C7.93587 0.273076 8.05046 0.163458 8.18602 0.0980743C8.32161 0.032691 8.46472 0 8.61535 0C8.76598 0 8.90909 0.032691 9.04467 0.0980743C9.18024 0.163458 9.29482 0.273076 9.38842 0.426926L12.5845 5.66532C12.6781 5.81596 12.7249 5.97413 12.7249 6.13985C12.7249 6.30555 12.6865 6.45698 12.6095 6.59415C12.5326 6.73133 12.4268 6.84095 12.2922 6.923C12.1576 7.00505 12.0006 7.04608 11.8211 7.04608H5.40963C5.22941 7.04608 5.07172 7.00465 4.93655 6.9218C4.80138 6.83895 4.69626 6.72973 4.62118 6.59415C4.54424 6.45905 4.50577 6.30893 4.50577 6.1438C4.50577 5.97867 4.55258 5.81917 4.64617 5.66532ZM14.1154 18.0461C12.9679 18.0461 11.9952 17.647 11.1971 16.849C10.399 16.0509 10 15.0782 10 13.9307C10 12.7833 10.399 11.8105 11.1971 11.0125C11.9952 10.2144 12.9679 9.81538 14.1154 9.81538C15.2628 9.81538 16.2355 10.2144 17.0336 11.0125C17.8317 11.8105 18.2307 12.7833 18.2307 13.9307C18.2307 15.0782 17.8317 16.0509 17.0336 16.849C16.2355 17.647 15.2628 18.0461 14.1154 18.0461ZM0 16.6419V11.217C0 10.9608 0.0866499 10.7465 0.25995 10.574C0.433233 10.4016 0.647967 10.3154 0.90415 10.3154H6.32912C6.58531 10.3154 6.79962 10.402 6.97205 10.5753C7.14448 10.7486 7.2307 10.9633 7.2307 11.2195V16.6445C7.2307 16.9007 7.14405 17.115 6.97075 17.2874C6.79747 17.4599 6.58273 17.5461 6.32655 17.5461H0.901575C0.645392 17.5461 0.431083 17.4594 0.25865 17.2861C0.0862165 17.1128 0 16.8981 0 16.6419ZM14.1151 16.5461C14.8473 16.5461 15.4663 16.2933 15.9721 15.7877C16.4779 15.2821 16.7308 14.6632 16.7308 13.931C16.7308 13.1988 16.478 12.5798 15.9724 12.074C15.4668 11.5682 14.8479 11.3153 14.1156 11.3153C13.3834 11.3153 12.7644 11.5681 12.2586 12.0737C11.7528 12.5793 11.4999 13.1982 11.4999 13.9305C11.4999 14.6627 11.7527 15.2817 12.2583 15.7874C12.7639 16.2932 13.3828 16.5461 14.1151 16.5461ZM1.49995 16.0461H5.73075V11.8153H1.49995V16.0461ZM6.4538 5.54613H10.7769L8.61535 2.06918L6.4538 5.54613Z" fill="#FF6C22"/>
</svg>
