<svg width="40" height="40" viewBox="0 0 40 40" fill="none" xmlns="http://www.w3.org/2000/svg">
<circle cx="20" cy="20" r="19.5" fill="white" stroke="#E9E9E9"/>
<path d="M28.0609 24.1198C27.584 23.2983 26.875 20.9737 26.875 17.9375C26.875 16.1141 26.1507 14.3655 24.8613 13.0761C23.572 11.7868 21.8233 11.0625 20 11.0625C18.1766 11.0625 16.4279 11.7868 15.1386 13.0761C13.8493 14.3655 13.125 16.1141 13.125 17.9375C13.125 20.9745 12.4151 23.2983 11.9382 24.1198C11.8164 24.3287 11.7518 24.566 11.751 24.8078C11.7502 25.0496 11.8131 25.2873 11.9335 25.497C12.0538 25.7067 12.2273 25.8809 12.4365 26.0022C12.6457 26.1234 12.8832 26.1873 13.125 26.1875H16.6321C16.7907 26.9637 17.2125 27.6612 17.8262 28.1622C18.4399 28.6631 19.2078 28.9367 20 28.9367C20.7922 28.9367 21.5601 28.6631 22.1737 28.1622C22.7874 27.6612 23.2093 26.9637 23.3679 26.1875H26.875C27.1167 26.1872 27.354 26.1231 27.5631 26.0018C27.7722 25.8805 27.9456 25.7063 28.0659 25.4966C28.1861 25.2869 28.249 25.0493 28.2481 24.8076C28.2472 24.5659 28.1827 24.3286 28.0609 24.1198ZM20 27.5625C19.5736 27.5624 19.1577 27.4301 18.8096 27.1838C18.4615 26.9376 18.1982 26.5895 18.0561 26.1875H21.9439C21.8018 26.5895 21.5385 26.9376 21.1904 27.1838C20.8423 27.4301 20.4264 27.5624 20 27.5625ZM13.125 24.8125C13.7867 23.6747 14.5 21.0381 14.5 17.9375C14.5 16.4788 15.0794 15.0799 16.1109 14.0484C17.1423 13.017 18.5413 12.4375 20 12.4375C21.4587 12.4375 22.8576 13.017 23.8891 14.0484C24.9205 15.0799 25.5 16.4788 25.5 17.9375C25.5 21.0355 26.2115 23.6721 26.875 24.8125H13.125Z" fill="#808080"/>
</svg>
