<svg width="20" height="20" viewBox="0 0 20 20" fill="none" xmlns="http://www.w3.org/2000/svg">
<mask id="mask0_1098_1977" style="mask-type:alpha" maskUnits="userSpaceOnUse" x="0" y="0" width="20" height="20">
<rect width="20" height="20" fill="#D9D9D9"/>
</mask>
<g mask="url(#mask0_1098_1977)">
<path d="M10.0001 13.9429C10.1909 13.9429 10.3507 13.8784 10.4797 13.7494C10.6087 13.6204 10.6732 13.4606 10.6732 13.2699C10.6732 13.0792 10.6087 12.9193 10.4797 12.7903C10.3507 12.6613 10.1909 12.5968 10.0001 12.5968C9.80943 12.5968 9.64958 12.6613 9.52058 12.7903C9.39158 12.9193 9.32708 13.0792 9.32708 13.2699C9.32708 13.4606 9.39158 13.6204 9.52058 13.7494C9.64958 13.8784 9.80943 13.9429 10.0001 13.9429ZM9.37516 10.8981H10.6251V5.89807H9.37516V10.8981ZM10.0015 17.9173C8.90659 17.9173 7.8774 17.7095 6.91395 17.2939C5.9505 16.8784 5.11243 16.3144 4.39975 15.6021C3.68705 14.8897 3.12284 14.052 2.7071 13.089C2.29136 12.126 2.0835 11.097 2.0835 10.002C2.0835 8.90708 2.29127 7.87789 2.70683 6.91444C3.12239 5.95098 3.68634 5.11292 4.3987 4.40024C5.11108 3.68754 5.94878 3.12333 6.91181 2.70759C7.87482 2.29185 8.9038 2.08398 9.99875 2.08398C11.0937 2.08398 12.1229 2.29176 13.0863 2.70732C14.0498 3.12287 14.8879 3.68683 15.6005 4.39919C16.3132 5.11157 16.8774 5.94927 17.2932 6.9123C17.7089 7.87531 17.9168 8.90429 17.9168 9.99924C17.9168 11.0942 17.709 12.1234 17.2935 13.0868C16.8779 14.0503 16.3139 14.8883 15.6016 15.601C14.8892 16.3137 14.0515 16.8779 13.0885 17.2937C12.1255 17.7094 11.0965 17.9173 10.0015 17.9173ZM10.0001 16.6673C11.8613 16.6673 13.4376 16.0215 14.7293 14.7298C16.021 13.4381 16.6668 11.8617 16.6668 10.0006C16.6668 8.13952 16.021 6.56313 14.7293 5.27146C13.4376 3.9798 11.8613 3.33396 10.0001 3.33396C8.13903 3.33396 6.56264 3.9798 5.27098 5.27146C3.97931 6.56313 3.33348 8.13952 3.33348 10.0006C3.33348 11.8617 3.97931 13.4381 5.27098 14.7298C6.56264 16.0215 8.13903 16.6673 10.0001 16.6673Z" fill="#AAAAAA"/>
</g>
</svg>
