<svg width="20" height="20" viewBox="0 0 20 20" fill="none" xmlns="http://www.w3.org/2000/svg">
<mask id="mask0_1111_10156" style="mask-type:alpha" maskUnits="userSpaceOnUse" x="0" y="0" width="20" height="20">
<rect width="20" height="20" fill="#D9D9D9"/>
</mask>
<g mask="url(#mask0_1111_10156)">
<path d="M9.53867 18C7.43412 18 5.65154 17.2736 4.19092 15.8207C2.73031 14.3679 2 12.5948 2 10.5015C2 8.4082 2.73031 6.63462 4.19092 5.18078C5.65154 3.72693 7.43412 3 9.53867 3C10.7139 3 11.8261 3.25994 12.875 3.77983C13.924 4.2997 14.7964 5.03336 15.4923 5.98081V3H17V9.11535H10.8531V7.61539H14.8235C14.2938 6.65 13.5593 5.88942 12.6199 5.33363C11.6804 4.77786 10.6534 4.49998 9.53867 4.49998C7.86341 4.49998 6.43943 5.08332 5.26674 6.24999C4.09406 7.41666 3.50771 8.83333 3.50771 10.5C3.50771 12.1667 4.09406 13.5833 5.26674 14.75C6.43943 15.9167 7.86341 16.5 9.53867 16.5C10.8286 16.5 11.9929 16.1334 13.0316 15.4C14.0703 14.6667 14.799 13.7 15.2178 12.5H16.8067C16.3505 14.132 15.452 15.4567 14.1111 16.474C12.7703 17.4913 11.2461 18 9.53867 18Z" fill="#AAAAAA"/>
</g>
</svg>
