<svg width="20" height="20" viewBox="0 0 20 20" fill="none" xmlns="http://www.w3.org/2000/svg">
<mask id="mask0_1111_3112" style="mask-type:alpha" maskUnits="userSpaceOnUse" x="0" y="0" width="20" height="20">
<rect width="20" height="20" fill="#D9D9D9"/>
</mask>
<g mask="url(#mask0_1111_3112)">
<path d="M12.8944 13.7711L13.7726 12.8929L10.6251 9.74528V5.83201H9.37516V10.2519L12.8944 13.7711ZM10.0015 17.9153C8.90659 17.9153 7.8774 17.7075 6.91395 17.292C5.9505 16.8764 5.11243 16.3125 4.39975 15.6001C3.68705 14.8877 3.12284 14.05 2.7071 13.087C2.29136 12.124 2.0835 11.095 2.0835 10.0001C2.0835 8.90513 2.29127 7.87593 2.70683 6.91249C3.12239 5.94903 3.68634 5.11096 4.3987 4.39828C5.11108 3.68559 5.94878 3.12137 6.91181 2.70564C7.87482 2.2899 8.9038 2.08203 9.99875 2.08203C11.0937 2.08203 12.1229 2.28981 13.0863 2.70537C14.0498 3.12092 14.8879 3.68488 15.6005 4.39724C16.3132 5.10962 16.8774 5.94732 17.2932 6.91035C17.7089 7.87336 17.9168 8.90234 17.9168 9.99728C17.9168 11.0922 17.709 12.1214 17.2935 13.0849C16.8779 14.0483 16.3139 14.8864 15.6016 15.5991C14.8892 16.3118 14.0515 16.876 13.0885 17.2917C12.1255 17.7075 11.0965 17.9153 10.0015 17.9153ZM10.0001 16.6653C11.8474 16.6653 13.4203 16.016 14.7189 14.7174C16.0175 13.4188 16.6668 11.8459 16.6668 9.99868C16.6668 8.15146 16.0175 6.57854 14.7189 5.27993C13.4203 3.98132 11.8474 3.33201 10.0001 3.33201C8.15292 3.33201 6.58 3.98132 5.28139 5.27993C3.98278 6.57854 3.33348 8.15146 3.33348 9.99868C3.33348 11.8459 3.98278 13.4188 5.28139 14.7174C6.58 16.016 8.15292 16.6653 10.0001 16.6653Z" fill="#AAAAAA"/>
</g>
</svg>
