<svg width="57" height="56" viewBox="0 0 57 56" fill="none" xmlns="http://www.w3.org/2000/svg">
<circle cx="28.5" cy="28" r="28" fill="#2AD6B7"/>
<mask id="mask0_933_11845" style="mask-type:alpha" maskUnits="userSpaceOnUse" x="12" y="12" width="33" height="32">
<rect x="12.5" y="12" width="32" height="32" fill="#D9D9D9"/>
</mask>
<g mask="url(#mask0_933_11845)">
<path d="M23.167 34.899V21.099C23.167 20.7212 23.3003 20.4045 23.567 20.149C23.8337 19.8934 24.1448 19.7656 24.5003 19.7656C24.6114 19.7656 24.7281 19.7823 24.8503 19.8156C24.9725 19.849 25.0892 19.899 25.2003 19.9656L36.067 26.8656C36.267 26.999 36.417 27.1656 36.517 27.3656C36.617 27.5656 36.667 27.7767 36.667 27.999C36.667 28.2212 36.617 28.4323 36.517 28.6323C36.417 28.8323 36.267 28.999 36.067 29.1323L25.2003 36.0323C25.0892 36.099 24.9725 36.149 24.8503 36.1823C24.7281 36.2156 24.6114 36.2323 24.5003 36.2323C24.1448 36.2323 23.8337 36.1045 23.567 35.849C23.3003 35.5934 23.167 35.2767 23.167 34.899Z" fill="white"/>
</g>
</svg>
