<svg width="57" height="56" viewBox="0 0 57 56" fill="none" xmlns="http://www.w3.org/2000/svg">
<circle cx="28.5" cy="28" r="28" fill="#ED1521"/>
<mask id="mask0_933_11671" style="mask-type:alpha" maskUnits="userSpaceOnUse" x="12" y="12" width="33" height="32">
<rect x="12.5" y="12" width="32" height="32" fill="#D9D9D9"/>
</mask>
<g mask="url(#mask0_933_11671)">
<path d="M20.5 33.3333V22.6667C20.5 21.9333 20.7611 21.3056 21.2833 20.7833C21.8056 20.2611 22.4333 20 23.1667 20H33.8333C34.5667 20 35.1944 20.2611 35.7167 20.7833C36.2389 21.3056 36.5 21.9333 36.5 22.6667V33.3333C36.5 34.0667 36.2389 34.6944 35.7167 35.2167C35.1944 35.7389 34.5667 36 33.8333 36H23.1667C22.4333 36 21.8056 35.7389 21.2833 35.2167C20.7611 34.6944 20.5 34.0667 20.5 33.3333Z" fill="white"/>
</g>
</svg>
