<svg width="32" height="32" viewBox="0 0 32 32" fill="none" xmlns="http://www.w3.org/2000/svg">
<mask id="mask0_1336_10035" style="mask-type:alpha" maskUnits="userSpaceOnUse" x="0" y="0" width="32" height="32">
<rect width="32" height="32" fill="#D9D9D9"/>
</mask>
<g mask="url(#mask0_1336_10035)">
<path d="M13.3333 4.00065C12.9556 4.00065 12.6389 3.87287 12.3833 3.61732C12.1278 3.36176 12 3.0451 12 2.66732C12 2.28954 12.1278 1.97287 12.3833 1.71732C12.6389 1.46176 12.9556 1.33398 13.3333 1.33398H18.6667C19.0444 1.33398 19.3611 1.46176 19.6167 1.71732C19.8722 1.97287 20 2.28954 20 2.66732C20 3.0451 19.8722 3.36176 19.6167 3.61732C19.3611 3.87287 19.0444 4.00065 18.6667 4.00065H13.3333ZM16 18.6673C16.3778 18.6673 16.6944 18.5395 16.95 18.284C17.2056 18.0284 17.3333 17.7118 17.3333 17.334V12.0007C17.3333 11.6229 17.2056 11.3062 16.95 11.0507C16.6944 10.7951 16.3778 10.6673 16 10.6673C15.6222 10.6673 15.3056 10.7951 15.05 11.0507C14.7944 11.3062 14.6667 11.6229 14.6667 12.0007V17.334C14.6667 17.7118 14.7944 18.0284 15.05 18.284C15.3056 18.5395 15.6222 18.6673 16 18.6673ZM16 29.334C14.3556 29.334 12.8056 29.0173 11.35 28.384C9.89444 27.7507 8.62222 26.8895 7.53333 25.8007C6.44444 24.7118 5.58333 23.4395 4.95 21.984C4.31667 20.5284 4 18.9784 4 17.334C4 15.6895 4.31667 14.1395 4.95 12.684C5.58333 11.2284 6.44444 9.95621 7.53333 8.86732C8.62222 7.77843 9.89444 6.91732 11.35 6.28398C12.8056 5.65065 14.3556 5.33398 16 5.33398C17.3778 5.33398 18.7 5.55621 19.9667 6.00065C21.2333 6.4451 22.4222 7.08954 23.5333 7.93398L24.4667 7.00065C24.7111 6.75621 25.0222 6.63398 25.4 6.63398C25.7778 6.63398 26.0889 6.75621 26.3333 7.00065C26.5778 7.2451 26.7 7.55621 26.7 7.93398C26.7 8.31176 26.5778 8.62287 26.3333 8.86732L25.4 9.80065C26.2444 10.9118 26.8889 12.1007 27.3333 13.3673C27.7778 14.634 28 15.9562 28 17.334C28 18.9784 27.6833 20.5284 27.05 21.984C26.4167 23.4395 25.5556 24.7118 24.4667 25.8007C23.3778 26.8895 22.1056 27.7507 20.65 28.384C19.1944 29.0173 17.6444 29.334 16 29.334ZM16 26.6673C18.5778 26.6673 20.7778 25.7562 22.6 23.934C24.4222 22.1118 25.3333 19.9118 25.3333 17.334C25.3333 14.7562 24.4222 12.5562 22.6 10.734C20.7778 8.91176 18.5778 8.00065 16 8.00065C13.4222 8.00065 11.2222 8.91176 9.4 10.734C7.57778 12.5562 6.66667 14.7562 6.66667 17.334C6.66667 19.9118 7.57778 22.1118 9.4 23.934C11.2222 25.7562 13.4222 26.6673 16 26.6673Z" fill="#FF6C22"/>
</g>
</svg>
