<svg width="19" height="20" viewBox="0 0 19 20" fill="none" xmlns="http://www.w3.org/2000/svg">
<path d="M16.4752 12.5762L16.4981 12.5614V12.5343V3.4375C16.4981 2.77729 16.228 2.14443 15.7477 1.67806C15.2674 1.21173 14.6163 0.95 13.9378 0.95H3.51031C2.83174 0.95 2.18068 1.21173 1.70042 1.67806C1.22011 2.14443 0.95 2.77729 0.95 3.4375V16.5625C0.95 17.2227 1.22011 17.8556 1.70042 18.3219C2.18068 18.7883 2.83174 19.05 3.51031 19.05H10.9007H11.0239L10.9355 18.9641L9.7769 17.8391L9.76235 17.825H9.74207H3.51031C2.79039 17.825 2.20861 17.258 2.20861 16.5625V3.4375C2.20861 3.10315 2.34538 2.78218 2.58934 2.54529C2.83335 2.30836 3.16461 2.175 3.51031 2.175H13.9378C14.2835 2.175 14.6147 2.30836 14.8587 2.54529C15.1027 2.78218 15.2395 3.10315 15.2395 3.4375V13.6135V13.7317L15.3243 13.6494L16.2195 12.7801C16.299 12.7029 16.3853 12.6344 16.4752 12.5762ZM13.2233 18.8709L13.2234 18.8709L17.8571 14.3715C17.8573 14.3714 17.8574 14.3713 17.8575 14.3712C17.9175 14.3148 17.9655 14.2474 17.9986 14.1727C18.0317 14.0979 18.0492 14.0174 18.05 13.9358C18.0507 13.8543 18.0348 13.7735 18.0031 13.6981C17.9713 13.6227 17.9245 13.5543 17.8654 13.4968C17.8062 13.4393 17.736 13.394 17.6588 13.3632C17.5816 13.3325 17.4989 13.3171 17.4155 13.3177C17.3322 13.3184 17.2498 13.3352 17.1731 13.3671C17.0965 13.399 17.0271 13.4454 16.969 13.5037C16.969 13.5038 16.9689 13.5039 16.9688 13.504L12.7792 17.5721L10.9077 15.7556L10.9077 15.7556L10.9064 15.7544C10.787 15.6464 10.6294 15.5878 10.4669 15.5906C10.3043 15.5934 10.1489 15.6574 10.0335 15.7694C9.91803 15.8815 9.85163 16.0331 9.84874 16.1922C9.84584 16.3513 9.9067 16.5051 10.018 16.6211L10.018 16.6211L10.0193 16.6224L12.335 18.8709L12.335 18.8709C12.4531 18.9854 12.6129 19.0495 12.7792 19.0495C12.9455 19.0495 13.1052 18.9854 13.2233 18.8709ZM5.77267 6.76128C5.96326 6.57621 6.07062 6.32488 6.07062 6.0625C6.07062 5.80012 5.96326 5.54879 5.77267 5.36372C5.58212 5.17869 5.32398 5.075 5.05512 5.075C4.78626 5.075 4.52812 5.17869 4.33757 5.36372C4.14697 5.54879 4.03961 5.80012 4.03961 6.0625C4.03961 6.32488 4.14697 6.57621 4.33757 6.76128C4.52812 6.94631 4.78626 7.05 5.05512 7.05C5.32398 7.05 5.58212 6.94631 5.77267 6.76128ZM5.05512 10.9875C5.32398 10.9875 5.58212 10.8838 5.77267 10.6988C5.96326 10.5137 6.07062 10.2624 6.07062 10C6.07062 9.73762 5.96326 9.48629 5.77267 9.30122C5.58212 9.11619 5.32398 9.0125 5.05512 9.0125C4.78626 9.0125 4.52812 9.11619 4.33757 9.30122C4.14697 9.48629 4.03961 9.73762 4.03961 10C4.03961 10.2624 4.14697 10.5137 4.33757 10.6988C4.52812 10.8838 4.78626 10.9875 5.05512 10.9875ZM5.05512 14.925C5.32398 14.925 5.58212 14.8213 5.77267 14.6363C5.96326 14.4512 6.07062 14.1999 6.07062 13.9375C6.07062 13.6751 5.96326 13.4238 5.77267 13.2387C5.58212 13.0537 5.32398 12.95 5.05512 12.95C4.78626 12.95 4.52812 13.0537 4.33757 13.2387C4.14697 13.4238 4.03961 13.6751 4.03961 13.9375C4.03961 14.1999 4.14697 14.4512 4.33757 14.6363C4.52812 14.8213 4.78626 14.925 5.05512 14.925ZM7.75853 5.45C7.5921 5.45 7.4322 5.51418 7.31407 5.62888C7.1959 5.74363 7.12923 5.89957 7.12923 6.0625C7.12923 6.22543 7.1959 6.38137 7.31407 6.49612C7.4322 6.61082 7.5921 6.675 7.75853 6.675H12.7792C12.9456 6.675 13.1055 6.61082 13.2236 6.49612C13.3418 6.38137 13.4085 6.22543 13.4085 6.0625C13.4085 5.89957 13.3418 5.74363 13.2236 5.62888C13.1055 5.51418 12.9456 5.45 12.7792 5.45H7.75853ZM7.31407 9.56638C7.1959 9.68113 7.12923 9.83707 7.12923 10C7.12923 10.1629 7.1959 10.3189 7.31407 10.4336C7.4322 10.5483 7.5921 10.6125 7.75853 10.6125H12.7792C12.9456 10.6125 13.1055 10.5483 13.2236 10.4336C13.3418 10.3189 13.4085 10.1629 13.4085 10C13.4085 9.83707 13.3418 9.68113 13.2236 9.56638C13.1055 9.45168 12.9456 9.3875 12.7792 9.3875H7.75853C7.5921 9.3875 7.4322 9.45168 7.31407 9.56638ZM7.75853 13.325C7.5921 13.325 7.4322 13.3892 7.31407 13.5039C7.1959 13.6186 7.12923 13.7746 7.12923 13.9375C7.12923 14.1004 7.1959 14.2564 7.31407 14.3711C7.4322 14.4858 7.5921 14.55 7.75853 14.55H12.7792C12.9456 14.55 13.1055 14.4858 13.2236 14.3711C13.3418 14.2564 13.4085 14.1004 13.4085 13.9375C13.4085 13.7746 13.3418 13.6186 13.2236 13.5039C13.1055 13.3892 12.9456 13.325 12.7792 13.325H7.75853Z" fill="#FF6C22" stroke="#FF6C22" stroke-width="0.1"/>
</svg>
