<svg width="16" height="16" viewBox="0 0 16 16" fill="none" xmlns="http://www.w3.org/2000/svg">
<path d="M4.56 9.24625C4.80814 9.24625 5.04612 9.14768 5.22159 8.97221C5.39705 8.79675 5.49563 8.55877 5.49563 8.31063C5.49563 8.06248 5.39705 7.8245 5.22159 7.64904C5.04612 7.47357 4.80814 7.375 4.56 7.375C4.31186 7.375 4.07388 7.47357 3.89841 7.64904C3.72295 7.8245 3.62437 8.06248 3.62437 8.31063C3.62437 8.55877 3.72295 8.79675 3.89841 8.97221C4.07388 9.14768 4.31186 9.24625 4.56 9.24625ZM5.49625 11.4362C5.49625 11.6844 5.39768 11.9224 5.22221 12.0978C5.04675 12.2733 4.80877 12.3719 4.56063 12.3719C4.31248 12.3719 4.0745 12.2733 3.89904 12.0978C3.72357 11.9224 3.625 11.6844 3.625 11.4362C3.625 11.1881 3.72357 10.9501 3.89904 10.7747C4.0745 10.5992 4.31248 10.5006 4.56063 10.5006C4.80877 10.5006 5.04675 10.5992 5.22221 10.7747C5.39768 10.9501 5.49625 11.1881 5.49625 11.4362ZM8 9.245C8.24798 9.245 8.4858 9.14649 8.66114 8.97114C8.83649 8.7958 8.935 8.55798 8.935 8.31C8.935 8.06202 8.83649 7.8242 8.66114 7.64886C8.4858 7.47351 8.24798 7.375 8 7.375C7.75186 7.375 7.51388 7.47357 7.33841 7.64904C7.16295 7.8245 7.06437 8.06248 7.06437 8.31063C7.06437 8.55877 7.16295 8.79675 7.33841 8.97221C7.51388 9.14768 7.75186 9.245 8 9.245ZM8.93625 11.435C8.93625 11.6831 8.83768 11.9211 8.66221 12.0966C8.48675 12.2721 8.24877 12.3706 8.00062 12.3706C7.75248 12.3706 7.5145 12.2721 7.33904 12.0966C7.16357 11.9211 7.065 11.6831 7.065 11.435C7.065 11.1869 7.16357 10.9489 7.33904 10.7734C7.5145 10.5979 7.75248 10.4994 8.00062 10.4994C8.24877 10.4994 8.48675 10.5979 8.66221 10.7734C8.83768 10.9489 8.93625 11.1869 8.93625 11.435ZM11.4362 9.245C11.6844 9.245 11.9224 9.14643 12.0978 8.97096C12.2733 8.7955 12.3719 8.55752 12.3719 8.30938C12.3719 8.06123 12.2733 7.82325 12.0978 7.64779C11.9224 7.47232 11.6844 7.37375 11.4362 7.37375C11.1881 7.37375 10.9501 7.47232 10.7747 7.64779C10.5992 7.82325 10.5006 8.06123 10.5006 8.30938C10.5006 8.55752 10.5992 8.7955 10.7747 8.97096C10.9501 9.14643 11.1881 9.245 11.4362 9.245ZM15.5 3.625C15.5 2.7962 15.1708 2.00134 14.5847 1.41529C13.9987 0.82924 13.2038 0.5 12.375 0.5H3.625C2.7962 0.5 2.00134 0.82924 1.41529 1.41529C0.82924 2.00134 0.5 2.7962 0.5 3.625V12.375C0.5 13.2038 0.82924 13.9987 1.41529 14.5847C2.00134 15.1708 2.7962 15.5 3.625 15.5H12.375C13.2038 15.5 13.9987 15.1708 14.5847 14.5847C15.1708 13.9987 15.5 13.2038 15.5 12.375V3.625ZM1.75 5.5H14.25V12.375C14.25 12.8723 14.0525 13.3492 13.7008 13.7008C13.3492 14.0525 12.8723 14.25 12.375 14.25H3.625C3.12772 14.25 2.65081 14.0525 2.29917 13.7008C1.94754 13.3492 1.75 12.8723 1.75 12.375V5.5ZM3.625 1.75H12.375C12.8723 1.75 13.3492 1.94754 13.7008 2.29917C14.0525 2.65081 14.25 3.12772 14.25 3.625V4.25H1.75V3.625C1.75 3.12772 1.94754 2.65081 2.29917 2.29917C2.65081 1.94754 3.12772 1.75 3.625 1.75Z" fill="#AAAAAA"/>
</svg>
