<svg width="16" height="17" viewBox="0 0 16 17" fill="none" xmlns="http://www.w3.org/2000/svg">
<path d="M5.66009 1.29098V0.0410156H10.3395V1.29098H5.66009ZM7.37484 10.5057H8.6248V5.82627H7.37484V10.5057ZM7.99982 16.916C7.02545 16.916 6.1088 16.7301 5.24984 16.3583C4.39087 15.9865 3.6398 15.479 2.99663 14.8359C2.35348 14.1927 1.846 13.4416 1.47421 12.5826C1.10241 11.7237 0.916504 10.807 0.916504 9.83266C0.916504 8.8583 1.10241 7.94164 1.47421 7.08268C1.846 6.22371 2.35348 5.47264 2.99663 4.82947C3.6398 4.18632 4.39087 3.67885 5.24984 3.30706C6.1088 2.93525 7.02545 2.74935 7.99982 2.74935C8.83422 2.74935 9.63791 2.89091 10.4109 3.17404C11.1838 3.45716 11.9015 3.86261 12.5639 4.39039L13.6024 3.35193L14.4805 4.23012L13.4421 5.26858C13.9699 5.93097 14.3753 6.64864 14.6584 7.4216C14.9416 8.19457 15.0831 8.99826 15.0831 9.83266C15.0831 10.807 14.8972 11.7237 14.5254 12.5826C14.1536 13.4416 13.6462 14.1927 13.003 14.8359C12.3598 15.479 11.6088 15.9865 10.7498 16.3583C9.89084 16.7301 8.97418 16.916 7.99982 16.916Z" fill="#2AD6B7"/>
</svg>
