<svg width="20" height="20" viewBox="0 0 20 20" fill="none" xmlns="http://www.w3.org/2000/svg">
<mask id="mask0_1098_1723" style="mask-type:alpha" maskUnits="userSpaceOnUse" x="0" y="0" width="20" height="20">
<rect width="20" height="20" fill="#D9D9D9"/>
</mask>
<g mask="url(#mask0_1098_1723)">
<path d="M5.76923 15.5448C5.20833 15.5448 4.73156 15.3485 4.33894 14.9559C3.94631 14.5633 3.75 14.0865 3.75 13.5256C3.75 12.9647 3.94631 12.4879 4.33894 12.0953C4.73156 11.7027 5.20833 11.5064 5.76923 11.5064C6.33013 11.5064 6.8069 11.7027 7.19952 12.0953C7.59215 12.4879 7.78846 12.9647 7.78846 13.5256C7.78846 14.0865 7.59215 14.5633 7.19952 14.9559C6.8069 15.3485 6.33013 15.5448 5.76923 15.5448ZM14.2308 15.5448C13.6699 15.5448 13.1931 15.3485 12.8005 14.9559C12.4079 14.5633 12.2115 14.0865 12.2115 13.5256C12.2115 12.9647 12.4079 12.4879 12.8005 12.0953C13.1931 11.7027 13.6699 11.5064 14.2308 11.5064C14.7917 11.5064 15.2684 11.7027 15.6611 12.0953C16.0537 12.4879 16.25 12.9647 16.25 13.5256C16.25 14.0865 16.0537 14.5633 15.6611 14.9559C15.2684 15.3485 14.7917 15.5448 14.2308 15.5448ZM10 8.49354C9.4391 8.49354 8.96233 8.29722 8.56971 7.9046C8.17708 7.51197 7.98077 7.03521 7.98077 6.47431C7.98077 5.9134 8.17708 5.43664 8.56971 5.04402C8.96233 4.65139 9.4391 4.45508 10 4.45508C10.5609 4.45508 11.0377 4.65139 11.4303 5.04402C11.8229 5.43664 12.0192 5.9134 12.0192 6.47431C12.0192 7.03521 11.8229 7.51197 11.4303 7.9046C11.0377 8.29722 10.5609 8.49354 10 8.49354Z" fill="#AAAAAA"/>
</g>
</svg>
