<svg width="20" height="20" viewBox="0 0 20 20" fill="none" xmlns="http://www.w3.org/2000/svg">
<path d="M14.375 2.5C15.2038 2.5 15.9987 2.82924 16.5847 3.41529C17.1708 4.00134 17.5 4.7962 17.5 5.625V7.82125C16.2695 6.80337 14.7219 6.24757 13.125 6.25H16.25V5.625C16.25 5.12772 16.0525 4.65081 15.7008 4.29917C15.3492 3.94754 14.8723 3.75 14.375 3.75H5.625C5.12772 3.75 4.65081 3.94754 4.29917 4.29917C3.94754 4.65081 3.75 5.12772 3.75 5.625V6.25H13.125C11.6537 6.25 10.29 6.7125 9.17125 7.5H3.75V14.375C3.75 14.8723 3.94754 15.3492 4.29917 15.7008C4.65081 16.0525 5.12772 16.25 5.625 16.25H7C7.22875 16.6975 7.505 17.1163 7.82125 17.5H5.625C4.7962 17.5 4.00134 17.1708 3.41529 16.5847C2.82924 15.9987 2.5 15.2038 2.5 14.375V5.625C2.5 4.7962 2.82924 4.00134 3.41529 3.41529C4.00134 2.82924 4.7962 2.5 5.625 2.5H14.375ZM7.5 13.125C7.5 13.8637 7.64549 14.5951 7.92818 15.2776C8.21086 15.9601 8.62519 16.5801 9.14752 17.1025C9.66985 17.6248 10.2899 18.0391 10.9724 18.3218C11.6549 18.6045 12.3863 18.75 13.125 18.75C13.8637 18.75 14.5951 18.6045 15.2776 18.3218C15.9601 18.0391 16.5801 17.6248 17.1025 17.1025C17.6248 16.5801 18.0391 15.9601 18.3218 15.2776C18.6045 14.5951 18.75 13.8637 18.75 13.125C18.75 11.6332 18.1574 10.2024 17.1025 9.14752C16.0476 8.09263 14.6168 7.5 13.125 7.5C11.6332 7.5 10.2024 8.09263 9.14752 9.14752C8.09263 10.2024 7.5 11.6332 7.5 13.125ZM15.625 9.375C15.7908 9.375 15.9497 9.44085 16.0669 9.55806C16.1842 9.67527 16.25 9.83424 16.25 10V11.875C16.25 12.0408 16.1842 12.1997 16.0669 12.3169C15.9497 12.4342 15.7908 12.5 15.625 12.5H13.75C13.5842 12.5 13.4253 12.4342 13.3081 12.3169C13.1908 12.1997 13.125 12.0408 13.125 11.875C13.125 11.7092 13.1908 11.5503 13.3081 11.4331C13.4253 11.3158 13.5842 11.25 13.75 11.25H14.335C13.978 11.0513 13.5773 10.9439 13.1687 10.9375C12.8329 10.9316 12.4993 10.9934 12.1879 11.1192C11.8765 11.2451 11.5937 11.4324 11.3562 11.67C11.2375 11.7791 11.0812 11.8381 10.9199 11.8347C10.7587 11.8312 10.605 11.7656 10.4911 11.6515C10.3771 11.5373 10.3117 11.3836 10.3084 11.2223C10.3052 11.0611 10.3644 10.9048 10.4737 10.7862C11.0574 10.2026 11.8173 9.82778 12.6357 9.71997C13.454 9.61217 14.2851 9.77739 15 10.19V10C15 9.83424 15.0658 9.67527 15.1831 9.55806C15.3003 9.44085 15.4592 9.375 15.625 9.375ZM14.53 16.29C14.0017 16.5034 13.4318 16.5937 12.8634 16.5538C12.2951 16.5139 11.7433 16.3451 11.25 16.06V16.25C11.25 16.4158 11.1842 16.5747 11.0669 16.6919C10.9497 16.8092 10.7908 16.875 10.625 16.875C10.4592 16.875 10.3003 16.8092 10.1831 16.6919C10.0658 16.5747 10 16.4158 10 16.25V14.375C10 14.2092 10.0658 14.0503 10.1831 13.9331C10.3003 13.8158 10.4592 13.75 10.625 13.75H12.5C12.6658 13.75 12.8247 13.8158 12.9419 13.9331C13.0592 14.0503 13.125 14.2092 13.125 14.375C13.125 14.5408 13.0592 14.6997 12.9419 14.8169C12.8247 14.9342 12.6658 15 12.5 15H11.915C12.2722 15.1984 12.6727 15.3057 13.0813 15.3125C13.4171 15.3184 13.7507 15.2566 14.0621 15.1308C14.3735 15.0049 14.6563 14.8176 14.8938 14.58C15.0125 14.4709 15.1688 14.4119 15.3301 14.4153C15.4913 14.4188 15.645 14.4844 15.7589 14.5985C15.8729 14.7127 15.9383 14.8664 15.9416 15.0277C15.9448 15.1889 15.8856 15.3452 15.7763 15.4638C15.42 15.82 14.9962 16.1025 14.53 16.29Z" fill="#AAAAAA"/>
</svg>
