<svg width="97" height="96" viewBox="0 0 97 96" fill="none" xmlns="http://www.w3.org/2000/svg">
<circle cx="48.5" cy="48" r="48" fill="#F0F1F8"/>
<path d="M17.0517 78.8966C21.7414 75.5862 26.6379 72.9655 31.7414 71.0345C36.8448 69.1035 42.431 68.1379 48.5 68.1379C54.569 68.1379 60.1552 69.1035 65.2586 71.0345C70.3621 72.9655 75.2586 75.5862 79.9483 78.8966C83.7184 75.1264 86.7759 70.6207 89.1207 65.3793C91.4655 60.1379 92.6379 54.3448 92.6379 48C92.6379 35.7701 88.3391 25.3563 79.7414 16.7586C71.1437 8.16092 60.7299 3.86207 48.5 3.86207C36.2701 3.86207 25.8563 8.16092 17.2586 16.7586C8.66092 25.3563 4.36207 35.7701 4.36207 48C4.36207 54.3448 5.53448 60.1379 7.87931 65.3793C10.2241 70.6207 13.2816 75.1264 17.0517 78.8966ZM48.5041 58.2069C44.0876 58.2069 40.3621 56.691 37.3276 53.6593C34.2931 50.6276 32.7759 46.9035 32.7759 42.4869C32.7759 38.0703 34.2917 34.3448 37.3234 31.3103C40.3552 28.2759 44.0793 26.7586 48.4959 26.7586C52.9124 26.7586 56.6379 28.2745 59.6724 31.3062C62.7069 34.3379 64.2241 38.0621 64.2241 42.4786C64.2241 46.8952 62.7083 50.6207 59.6766 53.6552C56.6448 56.6897 52.9207 58.2069 48.5041 58.2069ZM48.5 96C41.7874 96 35.5115 94.7586 29.6724 92.2759C23.8333 89.7931 18.7529 86.3908 14.431 82.069C10.1092 77.7471 6.7069 72.6667 4.22414 66.8276C1.74138 60.9885 0.5 54.7126 0.5 48C0.5 41.2874 1.74138 35.0115 4.22414 29.1724C6.7069 23.3333 10.1092 18.2529 14.431 13.931C18.7529 9.60919 23.8333 6.2069 29.6724 3.72414C35.5115 1.24138 41.7874 0 48.5 0C55.2126 0 61.4885 1.24138 67.3276 3.72414C73.1667 6.2069 78.2471 9.60919 82.569 13.931C86.8908 18.2529 90.2931 23.3333 92.7759 29.1724C95.2586 35.0115 96.5 41.2874 96.5 48C96.5 54.7126 95.2586 60.9885 92.7759 66.8276C90.2931 72.6667 86.8908 77.7471 82.569 82.069C78.2471 86.3908 73.1667 89.7931 67.3276 92.2759C61.4885 94.7586 55.2126 96 48.5 96ZM48.5 92.1379C53.6494 92.1379 58.7759 91.1954 63.8793 89.3103C68.9828 87.4253 73.3276 84.8736 76.9138 81.6552C73.3276 78.7126 69.1207 76.3678 64.2931 74.6207C59.4655 72.8736 54.2011 72 48.5 72C42.7989 72 37.5115 72.8506 32.6379 74.5517C27.7644 76.2529 23.5805 78.6207 20.0862 81.6552C23.6724 84.8736 28.0172 87.4253 33.1207 89.3103C38.2241 91.1954 43.3506 92.1379 48.5 92.1379ZM48.5 54.3448C51.8103 54.3448 54.6149 53.1954 56.9138 50.8965C59.2126 48.5977 60.3621 45.7931 60.3621 42.4828C60.3621 39.1724 59.2126 36.3678 56.9138 34.069C54.6149 31.7701 51.8103 30.6207 48.5 30.6207C45.1897 30.6207 42.3851 31.7701 40.0862 34.069C37.7874 36.3678 36.6379 39.1724 36.6379 42.4828C36.6379 45.7931 37.7874 48.5977 40.0862 50.8965C42.3851 53.1954 45.1897 54.3448 48.5 54.3448Z" fill="#FFD3BD"/>
</svg>
